<?xml version="1.0" encoding="utf-8"?>
<!-- Generator: Adobe Illustrator 16.0.0, SVG Export Plug-In . SVG Version: 6.00 Build 0)  -->
<!DOCTYPE svg PUBLIC "-//W3C//DTD SVG 1.1//EN" "http://www.w3.org/Graphics/SVG/1.1/DTD/svg11.dtd">
<svg version="1.1" id="Layer_1" xmlns:sketch="http://www.bohemiancoding.com/sketch/ns"
	 xmlns="http://www.w3.org/2000/svg" xmlns:xlink="http://www.w3.org/1999/xlink" x="0px" y="0px" width="120px" height="120px"
	 viewBox="0 0 120 120" enable-background="new 0 0 120 120" xml:space="preserve">
<title>c5</title>
<desc>Created with Sketch.</desc>
<g sketch:type="MSPage">
	<path sketch:type="MSShapeGroup" d="M45.979,55.487c0-0.926,0.751-1.677,1.677-1.677h0.184h10.238h0.184
		c0.926,0,1.677,0.751,1.677,1.677c0,0.926-0.751,1.677-1.677,1.677h-0.184H47.839h-0.184C46.73,57.164,45.979,56.414,45.979,55.487
		L45.979,55.487z M28.439,55.487L28.439,55.487c0-0.926,0.75-1.677,1.676-1.677h0.184h10.238h0.184c0.926,0,1.677,0.751,1.677,1.677
		c0,0.926-0.75,1.677-1.677,1.677h-0.184H30.299h-0.184C29.189,57.164,28.439,56.414,28.439,55.487L28.439,55.487z M34.557,24.55
		c1.957,0,3.698,0.919,4.817,2.349c1.12-1.43,2.861-2.349,4.817-2.349c3.379,0,6.118,2.739,6.118,6.118s-2.739,6.118-6.118,6.118
		c-1.957,0-3.697-0.919-4.817-2.349c-1.12,1.429-2.86,2.349-4.817,2.349c-3.379,0-6.118-2.739-6.118-6.118
		S31.178,24.55,34.557,24.55L34.557,24.55z M75.193,48.212c-1.194,0-2.162-0.968-2.162-2.163V44.95c0-1.195,0.968-2.163,2.162-2.163
		c1.195,0,2.163,0.968,2.163,2.163v1.099C77.356,47.244,76.389,48.212,75.193,48.212L75.193,48.212z M69.347,48.212
		c-1.194,0-2.163-0.968-2.163-2.163V44.95c0-1.195,0.969-2.163,2.163-2.163s2.163,0.968,2.163,2.163v1.099
		C71.51,47.244,70.541,48.212,69.347,48.212L69.347,48.212z M63.5,48.212c-1.195,0-2.163-0.968-2.163-2.163V44.95
		c0-1.195,0.968-2.163,2.163-2.163c1.194,0,2.163,0.968,2.163,2.163v1.099C65.663,47.244,64.694,48.212,63.5,48.212L63.5,48.212z
		 M57.653,48.212c-1.195,0-2.163-0.968-2.163-2.163V44.95c0-1.195,0.968-2.163,2.163-2.163c1.194,0,2.163,0.968,2.163,2.163v1.099
		C59.816,47.244,58.848,48.212,57.653,48.212L57.653,48.212z M45.979,46.049V44.95c0-1.195,0.968-2.163,2.163-2.163
		s2.163,0.968,2.163,2.163v1.099c0,1.195-0.968,2.163-2.163,2.163S45.979,47.244,45.979,46.049L45.979,46.049z M40.132,46.049V44.95
		c0-1.195,0.968-2.163,2.163-2.163c1.194,0,2.163,0.968,2.163,2.163v1.099c0,1.195-0.969,2.163-2.163,2.163
		C41.101,48.212,40.132,47.244,40.132,46.049L40.132,46.049z M36.449,48.212c-1.195,0-2.163-0.968-2.163-2.163V44.95
		c0-1.195,0.968-2.163,2.163-2.163c1.194,0,2.163,0.968,2.163,2.163v1.099C38.611,47.244,37.643,48.212,36.449,48.212L36.449,48.212
		z M28.439,44.95c0-1.195,0.968-2.163,2.163-2.163c1.195,0,2.163,0.968,2.163,2.163v1.099c0,1.195-0.968,2.163-2.163,2.163
		c-1.194,0-2.163-0.968-2.163-2.163V44.95z M100.104,73.332c0,2.06-1.676,3.735-3.735,3.735H32.651c-2.06,0-3.736-1.676-3.736-3.735
		v-3.501h71.189V73.332z M19.896,22.191c0-2.06,1.676-3.736,3.736-3.736H87.35c2.06,0,3.735,1.676,3.735,3.736v39.472
		c0,2.06-1.676,3.735-3.735,3.735H23.631c-2.06,0-3.736-1.676-3.736-3.735V22.191z M96.369,30.124c2.06,0,3.735,1.676,3.735,3.736
		v24.869H94.18V30.124H96.369z M103.2,58.729L103.2,58.729l-0.001-24.869c0-3.773-3.058-6.831-6.83-6.831H94.18v-4.837
		c0-3.773-3.059-6.832-6.83-6.832H23.631c-3.773,0-6.832,3.059-6.832,6.832v39.472c0,3.772,3.059,6.831,6.832,6.831h2.188v4.838
		c0,3.772,3.058,6.831,6.831,6.831h63.718c3.772,0,6.83-3.059,6.83-6.831v-3.501h0.001V58.729z"/>
</g>
</svg>
