<?xml version="1.0" encoding="utf-8"?>
<!-- Generator: Adobe Illustrator 16.0.0, SVG Export Plug-In . SVG Version: 6.00 Build 0)  -->
<!DOCTYPE svg PUBLIC "-//W3C//DTD SVG 1.1//EN" "http://www.w3.org/Graphics/SVG/1.1/DTD/svg11.dtd">
<svg version="1.1" id="Layer_1" xmlns="http://www.w3.org/2000/svg" xmlns:xlink="http://www.w3.org/1999/xlink" x="0px" y="0px"
	 width="120px" height="120px" viewBox="0 0 120 120" enable-background="new 0 0 120 120" xml:space="preserve">
<g>
	<g>
		<g>
			<path d="M80,82H16c-1.104,0-2-0.896-2-2V40c0-1.104,0.896-2,2-2h64c1.104,0,2,0.896,2,2v40C82,81.104,81.104,82,80,82z M18,78h60
				V42H18V78z"/>
		</g>
		<path d="M68,74h-4c-1.104,0-2-0.896-2-2s0.896-2,2-2h2.34c0.604-1.704,1.956-3.057,3.66-3.66V53.656
			c-1.704-0.604-3.057-1.956-3.66-3.66H64c-1.104,0-2-0.896-2-2s0.896-2,2-2h4c1.104,0,2,0.896,2,2s0.896,2,2,2s2,0.896,2,2v16
			c0,1.104-0.896,2-2,2s-2,0.896-2,2C70,73.104,69.104,74,68,74z"/>
		<path d="M32,74h-4c-1.104,0-2-0.896-2-2s-0.896-2-2-2s-2-0.896-2-2V52c0-1.104,0.896-2,2-2s2-0.896,2-2s0.896-2,2-2h4
			c1.104,0,2,0.896,2,2s-0.896,2-2,2h-2.34c-0.604,1.704-1.956,3.056-3.66,3.66v12.684c1.704,0.604,3.056,1.956,3.66,3.66H32
			c1.104,0,2,0.896,2,2S33.104,74,32,74z"/>
	</g>
	<path d="M48,74c-7.72,0-14-6.279-14-14c0-7.72,6.28-14,14-14s14,6.28,14,14C62,67.721,55.72,74,48,74z M48,50
		c-5.512,0-10,4.488-10,10c0,5.512,4.488,10,10,10s10-4.488,10-10C58,54.488,53.512,50,48,50z"/>
	<g>
		<path d="M88,74h-8c-1.104,0-2-0.896-2-2s0.896-2,2-2h6V34H26v6c0,1.104-0.896,2-2,2s-2-0.896-2-2v-8c0-1.104,0.896-2,2-2h64
			c1.104,0,2,0.896,2,2v40C90,73.104,89.104,74,88,74z"/>
	</g>
	<g>
		<path d="M96,66h-8c-1.104,0-2-0.896-2-2s0.896-2,2-2h6V26H34v6c0,1.104-0.896,2-2,2s-2-0.896-2-2v-8c0-1.104,0.896-2,2-2h64
			c1.104,0,2,0.896,2,2v40C98,65.104,97.104,66,96,66z"/>
	</g>
	<g>
		<path d="M104,58h-8c-1.104,0-2-0.896-2-2s0.896-2,2-2h6V18H42v6c0,1.104-0.896,2-2,2s-2-0.896-2-2v-8c0-1.104,0.896-2,2-2h64
			c1.104,0,2,0.896,2,2v40C106,57.104,105.104,58,104,58z"/>
	</g>
</g>
</svg>
