<?xml version="1.0" encoding="utf-8"?>
<!-- Generator: Adobe Illustrator 16.0.0, SVG Export Plug-In . SVG Version: 6.00 Build 0)  -->
<!DOCTYPE svg PUBLIC "-//W3C//DTD SVG 1.1//EN" "http://www.w3.org/Graphics/SVG/1.1/DTD/svg11.dtd">
<svg version="1.1" id="Layer_1" xmlns="http://www.w3.org/2000/svg" xmlns:xlink="http://www.w3.org/1999/xlink" x="0px" y="0px"
	 width="120px" height="120px" viewBox="0 0 120 120" enable-background="new 0 0 120 120" xml:space="preserve">
<g>
	<path d="M51.498,96c-3.324,0-6.42-0.975-9.204-2.896c-5.274-3.646-20.478-19.136-22.826-36.806
		c-1.196-9.002,1.148-17.054,6.966-23.934c0.442-0.46,9-9.03,19.238-7.96c4.546,0.474,6.072,1.106,7.296,1.612
		c1.16,0.478,2.076,0.858,7.04,0.874c4.95-0.016,5.866-0.396,7.024-0.874c1.226-0.506,2.75-1.136,7.296-1.612
		c10.218-1.074,18.802,7.508,19.138,7.852c5.918,6.99,8.263,15.042,7.063,24.046c-2.352,17.675-17.555,33.16-22.829,36.8
		C74.92,95.025,71.824,96,68.502,96l0,0c-3.676,0-6.75-1.195-8.502-2.064C58.25,94.807,55.18,96,51.498,96z M43.882,28.312
		c-7.796,0-14.424,6.676-14.492,6.744c-4.96,5.874-6.998,12.88-5.958,20.716c2.144,16.132,16.446,30.8,21.132,34.042
		C46.668,91.264,49,92,51.498,92c3.676,0,6.664-1.578,7.494-2.061c0.62-0.363,1.39-0.365,2.014-0.002
		C61.836,90.42,64.836,92,68.502,92l0,0c2.494,0,4.824-0.736,6.926-2.188c4.688-3.238,18.99-17.9,21.139-34.039
		c1.041-7.836-0.994-14.844-6.055-20.828l0,0c-0.008,0-7.447-7.448-15.768-6.566c-3.971,0.416-5.146,0.9-6.186,1.33
		c-1.742,0.72-3.19,1.16-8.553,1.176c-5.376-0.018-6.822-0.458-8.566-1.176c-1.038-0.43-2.214-0.916-6.184-1.33
		C44.794,28.334,44.334,28.312,43.882,28.312z"/>
	<path d="M60.002,29.732c-0.096,0-0.194-0.006-0.292-0.022c-1.092-0.16-1.848-1.176-1.688-2.268
		c2.104-14.36-7.868-23.884-7.968-23.98c-0.806-0.754-0.85-2.018-0.098-2.826c0.752-0.808,2.012-0.858,2.822-0.104
		c0.476,0.442,11.621,10.996,9.203,27.488C61.834,29.016,60.979,29.732,60.002,29.732z"/>
	<path d="M71.023,23.174c-3.617,0-7.5-0.948-11.54-2.816c-0.666-0.308-1.11-0.956-1.156-1.688
		c-0.014-0.238-0.322-5.874,4.124-10.614C67.784,2.374,77.434,0.534,90.88,2.69c0.97,0.156,1.685,0.992,1.685,1.974
		C92.562,5.932,86.566,23.174,71.023,23.174z M62.384,17.264c3.058,1.268,5.958,1.912,8.638,1.912
		c9.75,0,14.856-8.694,16.748-12.888C77.04,4.936,69.408,6.486,65.368,10.796C63.184,13.126,62.559,15.784,62.384,17.264z"/>
</g>
</svg>
