<?xml version="1.0" encoding="utf-8"?>
<!-- Generator: Adobe Illustrator 16.0.0, SVG Export Plug-In . SVG Version: 6.00 Build 0)  -->
<!DOCTYPE svg PUBLIC "-//W3C//DTD SVG 1.1//EN" "http://www.w3.org/Graphics/SVG/1.1/DTD/svg11.dtd">
<svg version="1.1" id="Layer_1" xmlns="http://www.w3.org/2000/svg" xmlns:xlink="http://www.w3.org/1999/xlink" x="0px" y="0px"
	 width="120px" height="120px" viewBox="0 0 120 120" enable-background="new 0 0 120 120" xml:space="preserve">
<g>
	<g>
		<path d="M91.856,24.031c-4.334-2.311-9.819-0.518-12.226,4c-2.406,4.515-0.839,10.068,3.494,12.379
			c4.336,2.311,9.819,0.517,12.227-3.999C97.759,31.894,96.189,26.34,91.856,24.031z M93.207,35.269
			c-1.736,3.257-5.713,4.54-8.865,2.86c-3.152-1.681-4.305-5.699-2.568-8.957c1.738-3.259,5.715-4.541,8.867-2.861
			C93.793,27.993,94.945,32.009,93.207,35.269z"/>
	</g>
	<g>
		<path d="M91.492,34.354c-1.207,2.263-3.982,3.15-6.189,1.973c-2.208-1.177-3.02-3.976-1.813-6.24
			c1.208-2.264,3.983-3.149,6.19-1.972C91.887,29.291,92.701,32.089,91.492,34.354L91.492,34.354z"/>
	</g>
	<g>
		<path d="M64.793,90.24c-13.477,0-24.444-13.678-24.444-30.491c0-0.967,0.784-1.749,1.75-1.749c0.965,0,1.748,0.782,1.748,1.749
			c0,14.885,9.397,26.993,20.947,26.993c7.395,0,13.744-3.865,17.416-10.608c2.348-4.313,3.537-9.825,3.533-16.384v-13.51
			c0-0.966,0.781-1.748,1.748-1.748c0.965,0,1.748,0.782,1.748,1.748v13.51c0.004,7.15-1.328,13.226-3.959,18.055
			C80.977,85.707,73.508,90.24,64.793,90.24z"/>
	</g>
	<g>
		<path d="M42.214,55.766c-9.237,0-16.752-9.173-16.752-20.448c0-0.986,0.8-1.785,1.785-1.785s1.785,0.799,1.785,1.785
			c0,9.307,5.914,16.88,13.183,16.88c7.271,0,13.184-7.572,13.184-16.88c0-0.986,0.798-1.785,1.783-1.785
			c0.986,0,1.785,0.799,1.785,1.785C58.965,46.593,51.451,55.766,42.214,55.766z"/>
	</g>
	<g>
		<path d="M56.765,38.867c-0.017,0-0.034-0.001-0.052-0.003c-0.331-0.028-0.577-0.32-0.549-0.651l1.794-21.077
			c0.025-0.168,0.441-3.027-2.618-4.434c-0.734-0.234-2.683-0.804-3.407-0.813c-0.334-0.004-0.601-0.276-0.597-0.609
			c0.005-0.333,0.287-0.602,0.61-0.596c1.05,0.012,3.518,0.792,3.794,0.881l0.067,0.025c3.162,1.434,3.57,4.352,3.344,5.696
			l-1.789,21.029C57.338,38.628,57.075,38.867,56.765,38.867z"/>
	</g>
	<g>
		<g>
			<g>
				<defs>
					
						<rect id="SVGID_1_" x="47.111" y="8.481" transform="matrix(-0.1983 0.9801 -0.9801 -0.1983 68.6481 -35.8739)" width="3.77" height="3.315"/>
				</defs>
				<clipPath id="SVGID_2_">
					<use xlink:href="#SVGID_1_"  overflow="visible"/>
				</clipPath>
				<g clip-path="url(#SVGID_2_)">
					<path d="M49.799,11.022l-1.88,0.687c0,0-0.998,0.332-0.788-0.699l0.241-1.195l0.242-1.194c0,0,0.209-1.03,0.997-0.337
						l1.465,1.364"/>
				</g>
			</g>
			<g>
				<defs>
					
						<rect id="SVGID_3_" x="47.111" y="8.481" transform="matrix(-0.1983 0.9801 -0.9801 -0.1983 68.6481 -35.8739)" width="3.77" height="3.315"/>
				</defs>
				<clipPath id="SVGID_4_">
					<use xlink:href="#SVGID_3_"  overflow="visible"/>
				</clipPath>
				<g clip-path="url(#SVGID_4_)">
					<path d="M50.893,9.809l0.249,0.233c0,0,0.334,0.292,0.295,0.587c-0.021,0.16-0.151,0.32-0.5,0.436l-0.319,0.117"/>
				</g>
			</g>
		</g>
		<g>
			<circle cx="49.493" cy="10.248" r="0.835"/>
		</g>
	</g>
	<g>
		<g>
			<g>
				<defs>
					
						<rect id="SVGID_5_" x="32.907" y="8.481" transform="matrix(0.1983 0.9801 -0.9801 0.1983 37.8294 -25.9729)" width="3.77" height="3.315"/>
				</defs>
				<clipPath id="SVGID_6_">
					<use xlink:href="#SVGID_5_"  overflow="visible"/>
				</clipPath>
				<g clip-path="url(#SVGID_6_)">
					<path d="M33.989,11.022l1.881,0.687c0,0,0.997,0.332,0.788-0.699l-0.241-1.195l-0.242-1.194c0,0-0.208-1.03-0.998-0.337
						l-1.465,1.364"/>
				</g>
			</g>
			<g>
				<defs>
					
						<rect id="SVGID_7_" x="32.907" y="8.481" transform="matrix(0.1983 0.9801 -0.9801 0.1983 37.8294 -25.9729)" width="3.77" height="3.315"/>
				</defs>
				<clipPath id="SVGID_8_">
					<use xlink:href="#SVGID_7_"  overflow="visible"/>
				</clipPath>
				<g clip-path="url(#SVGID_8_)">
					<path d="M32.896,9.809l-0.25,0.233c0,0-0.334,0.292-0.294,0.587c0.021,0.16,0.151,0.32,0.5,0.436l0.32,0.117"/>
				</g>
			</g>
		</g>
		<g>
			<circle cx="34.294" cy="10.248" r="0.835"/>
		</g>
	</g>
	<g>
		<path d="M27.342,38.867c-0.309,0-0.572-0.238-0.6-0.551l-1.796-21.078c-0.219-1.295,0.189-4.214,3.351-5.647l0.065-0.025
			c0.277-0.089,2.745-0.87,3.797-0.881c0.001,0,0.004,0,0.006,0c0.33,0,0.6,0.265,0.602,0.596c0.004,0.333-0.262,0.605-0.594,0.609
			c-0.727,0.008-2.674,0.579-3.41,0.813c-3.059,1.406-2.642,4.266-2.624,4.387l1.802,21.123c0.029,0.332-0.218,0.623-0.549,0.651
			C27.376,38.866,27.359,38.867,27.342,38.867z"/>
	</g>
</g>
</svg>
