<?xml version="1.0" encoding="utf-8"?>
<!-- Generator: Adobe Illustrator 16.0.0, SVG Export Plug-In . SVG Version: 6.00 Build 0)  -->
<!DOCTYPE svg PUBLIC "-//W3C//DTD SVG 1.1//EN" "http://www.w3.org/Graphics/SVG/1.1/DTD/svg11.dtd">
<svg version="1.1" id="Layer_1" xmlns="http://www.w3.org/2000/svg" xmlns:xlink="http://www.w3.org/1999/xlink" x="0px" y="0px"
	 width="120px" height="120px" viewBox="0 0 120 120" enable-background="new 0 0 120 120" xml:space="preserve">
<title>ALL</title>
<path d="M89.348,87.359H30.653c-0.53,0-0.96-0.43-0.96-0.959V39.734c-0.001-0.25,0.095-0.492,0.269-0.672L59.309,8.928
	c0.371-0.379,0.979-0.386,1.357-0.016c0.006,0.005,0.011,0.01,0.016,0.016l29.357,30.134c0.174,0.18,0.27,0.421,0.268,0.672V86.4
	C90.307,86.93,89.877,87.359,89.348,87.359z M31.613,85.439h56.774V40.128L60,10.973L31.613,40.128V85.439z"/>
<path d="M83.481,87.359c-0.53,0-0.96-0.43-0.96-0.959V49.843H65.817V86.4c0,0.529-0.43,0.959-0.96,0.959
	c-0.529,0-0.96-0.43-0.96-0.959V48.883c0-0.53,0.431-0.96,0.96-0.96h18.624c0.53,0,0.96,0.43,0.96,0.96V86.4
	C84.441,86.93,84.012,87.359,83.481,87.359z"/>
<path d="M55.93,68.467H37.306c-0.53,0-0.96-0.43-0.96-0.959V48.883c0-0.53,0.43-0.96,0.96-0.96H55.93c0.53,0,0.96,0.43,0.96,0.96
	v18.625C56.89,68.037,56.46,68.467,55.93,68.467L55.93,68.467z M38.266,66.547H54.97V49.843H38.266V66.547z"/>
<path d="M39.533,31.574c-0.53,0-0.96-0.43-0.96-0.96V16.09c0-0.53,0.43-0.96,0.96-0.96h5.251c0.53,0,0.96,0.43,0.96,0.96v9.139
	c0,0.53-0.43,0.96-0.96,0.96c-0.53,0-0.96-0.43-0.96-0.96V17.05h-3.332v13.564C40.493,31.145,40.063,31.574,39.533,31.574z"/>
<path d="M89.348,40.694H30.653c-0.53,0-0.96-0.43-0.96-0.96s0.43-0.96,0.96-0.96h58.695c0.529,0,0.959,0.43,0.959,0.96
	S89.877,40.694,89.348,40.694z"/>
<path d="M68.525,71.885c-0.531,0-0.961-0.43-0.961-0.96v-6.815c0-0.531,0.43-0.961,0.961-0.961c0.529,0,0.959,0.43,0.959,0.961
	v6.815C69.484,71.455,69.055,71.885,68.525,71.885z"/>
</svg>
