<?xml version="1.0" encoding="utf-8"?>
<!-- Generator: Adobe Illustrator 16.0.0, SVG Export Plug-In . SVG Version: 6.00 Build 0)  -->
<!DOCTYPE svg PUBLIC "-//W3C//DTD SVG 1.1//EN" "http://www.w3.org/Graphics/SVG/1.1/DTD/svg11.dtd">
<svg version="1.1" id="Layer_1" xmlns="http://www.w3.org/2000/svg" xmlns:xlink="http://www.w3.org/1999/xlink" x="0px" y="0px"
	 width="120px" height="120px" viewBox="0 0 120 120" enable-background="new 0 0 120 120" xml:space="preserve">
<g>
	<path d="M55.2,84.8H32.8c-0.88,0-1.6,0.72-1.6,1.601c0,0.879,0.72,1.6,1.6,1.6h22.4c0.88,0,1.6-0.721,1.6-1.6
		C56.8,85.52,56.08,84.8,55.2,84.8z"/>
	<path d="M55.2,78.4H32.8c-0.88,0-1.6,0.72-1.6,1.6s0.72,1.6,1.6,1.6h22.4c0.88,0,1.6-0.72,1.6-1.6S56.08,78.4,55.2,78.4z"/>
	<path d="M44,36.8c-8.816,0-16,7.888-16,17.6C28,64.111,35.184,72,44,72s16-7.889,16-17.6C60,44.688,52.816,36.8,44,36.8z M44,68.8
		c-7.056,0-12.8-6.464-12.8-14.4S36.944,40,44,40s12.8,6.464,12.8,14.4S51.056,68.8,44,68.8z"/>
	<path d="M44,43.2c-3.536,0-6.4,2.864-6.4,6.4c0,3.536,2.864,6.4,6.4,6.4s6.4-2.864,6.4-6.4C50.4,46.064,47.536,43.2,44,43.2z
		 M44,52.8c-1.76,0-3.2-1.44-3.2-3.2c0-1.76,1.44-3.2,3.2-3.2s3.2,1.44,3.2,3.2C47.2,51.36,45.76,52.8,44,52.8z"/>
	<path d="M106.4,92.8H104.8V88H98.4v-6.4h-3.2v-24V48v-5.456l4.848-4.848c4.097-4.096,6.353-9.552,6.353-15.344V17.6v-3.2V9.424
		c0-3.024-1.457-5.776-3.904-7.376C100.448,0.704,98.208,0,96,0c-5.729,0-10.4,4.672-10.4,10.4v28.16l-16,16V54.4
		c0-10.72-6.623-19.904-16-23.712V28.8c0-5.296-4.304-9.6-9.6-9.6s-9.6,4.304-9.6,9.6v1.888c-6.576,2.672-11.776,8-14.32,14.656
		C15.088,48.192,12,53.424,12,59.2c0,5.04,2.384,9.743,6.4,12.768V76.8V80v16H28v-3.2h32V96h9.6V80v-3.2v-8.655l16-16V57.6v24H82.4
		V88H76v4.8h-1.6c-0.881,0-1.601,0.72-1.601,1.601c0,0.879,0.72,1.6,1.601,1.6H76h28.8h1.601c0.879,0,1.6-0.721,1.6-1.6
		C108,93.52,107.279,92.8,106.4,92.8z M92,54.4h-3.2v-3.2H92V54.4z M96.8,14.4v3.2v2.096c0,2.592-0.56,5.12-1.6,7.472V10.4
		c0-0.448,0.352-0.8,0.8-0.8s0.8,0.352,0.8,0.8V14.4z M103.2,22.352c0,4.944-1.921,9.584-5.425,13.072L95.2,38.016V33.28
		c3.104-3.856,4.8-8.656,4.8-13.584V17.6h3.2V22.352z M88.8,10.4c0-3.968,3.232-7.2,7.2-7.2c1.6,0,3.2,0.512,4.736,1.52
		c1.52,1.008,2.464,2.8,2.464,4.704V14.4H100v-4c0-2.208-1.792-4-4-4s-4,1.792-4,4v21.728v13.616V48h-3.2V35.36V10.4z M37.6,29.632
		V28.8c0-3.536,2.864-6.4,6.4-6.4s6.4,2.864,6.4,6.4v0.832c-0.128-0.032-0.256-0.064-0.384-0.096
		c-0.4-0.096-0.784-0.192-1.184-0.272c-0.624-0.128-1.264-0.224-1.904-0.288c-0.224-0.032-0.448-0.048-0.688-0.064
		C45.504,28.848,44.752,28.8,44,28.8s-1.504,0.048-2.24,0.112c-0.224,0.016-0.448,0.048-0.688,0.064
		c-0.64,0.08-1.264,0.16-1.904,0.288c-0.4,0.08-0.784,0.176-1.184,0.272C37.856,29.568,37.728,29.6,37.6,29.632z M15.2,59.2
		c0-3.344,1.296-6.48,3.52-8.816c-0.032,0.224-0.048,0.464-0.08,0.688c-0.048,0.336-0.096,0.688-0.128,1.024
		C18.448,52.864,18.4,53.632,18.4,54.4v13.264C16.352,65.359,15.2,62.352,15.2,59.2z M21.6,92.8V80h3.2v12.8H21.6z M66.4,92.8h-3.2
		V80h3.2V92.8z M66.4,76.8H60v12.8H28V76.8h-6.4v-2.624V54.4c0-0.688,0.048-1.376,0.096-2.048c0.032-0.368,0.096-0.72,0.144-1.088
		c0.032-0.272,0.08-0.56,0.128-0.832c0.096-0.48,0.192-0.96,0.32-1.44c0.032-0.128,0.064-0.256,0.096-0.384
		c0.144-0.544,0.304-1.072,0.496-1.616c2.24-6.4,7.312-11.472,13.712-13.728c0.544-0.192,1.088-0.352,1.648-0.512
		c0.096-0.032,0.208-0.048,0.304-0.08c0.512-0.128,1.024-0.24,1.536-0.336c0.192-0.032,0.384-0.064,0.592-0.096
		c0.448-0.064,0.896-0.128,1.36-0.176c0.352-0.032,0.704-0.032,1.056-0.048c0.608-0.032,1.232-0.032,1.84,0
		c0.352,0.016,0.704,0.016,1.056,0.048c0.448,0.048,0.896,0.112,1.36,0.176c0.192,0.032,0.4,0.048,0.592,0.096
		c0.512,0.096,1.024,0.208,1.536,0.336c0.096,0.032,0.208,0.048,0.304,0.08c0.56,0.144,1.104,0.32,1.648,0.512
		C60.128,36.352,66.4,44.64,66.4,54.4v3.36v13.584V76.8z M69.6,59.088l16-16v4.528l-16,16V59.088z M88.8,57.6H92v24h-3.2V57.6z
		 M85.6,84.8H95.2V88H85.6V84.8z M79.2,92.8v-1.6h3.2h16h3.199v1.6H79.2z"/>
</g>
</svg>
