<?xml version="1.0" encoding="utf-8"?>
<!-- Generator: Adobe Illustrator 16.0.0, SVG Export Plug-In . SVG Version: 6.00 Build 0)  -->
<!DOCTYPE svg PUBLIC "-//W3C//DTD SVG 1.1//EN" "http://www.w3.org/Graphics/SVG/1.1/DTD/svg11.dtd">
<svg version="1.1" id="Layer_1" xmlns="http://www.w3.org/2000/svg" xmlns:xlink="http://www.w3.org/1999/xlink" x="0px" y="0px"
	 width="120px" height="120px" viewBox="0 0 120 120" enable-background="new 0 0 120 120" xml:space="preserve">
<g>
	<path fill="none" d="M49.875,63.312c-0.037,0.08-0.086,0.154-0.153,0.218l-24.359,23.44l-0.025,5.857h68.608l0.001-5.127
		L70.596,63.312H49.875z"/>
</g>
<g>
	<path fill="none" d="M89.98,63.312H72.585l21.361,22.311l0.002-30.727l-3.28,7.957"/>
</g>
<g>
	<path fill="none" d="M28.231,58.722v-12.21l-2.81,2.115l-0.003,2.427c0.014,0.026,0.029,0.053,0.039,0.082L28.231,58.722z"/>
</g>
<g>
	<path fill="none" d="M29.095,63.312c-0.33,0.067-0.751-0.098-0.883-0.457l-2.801-7.662l-0.046,29.781l22.511-21.662H29.095
		C29.048,63.321,29.095,63.312,29.095,63.312z"/>
</g>
<g>
	<path fill="none" d="M90.703,50.947c0.006,0.048,0.006,0.097,0,0.145V59l3.234-7.847c0.005-0.007,0.008-0.012,0.012-0.02v-2.792
		l-3.246-2.432V50.947z"/>
</g>
<g>
	<polygon fill="none" points="56.422,31.821 63.064,31.814 59.774,29.357 	"/>
</g>
<g>
	<path d="M90.703,50.947v0.145C90.707,51.043,90.707,50.995,90.703,50.947z"/>
</g>
<g>
	<path d="M95.049,47.372C95.166,47.446,95.074,47.392,95.049,47.372C95.067,47.384,95.049,47.372,95.049,47.372z"/>
</g>
<g>
	<g>
		<path d="M95.192,47.5C95.31,47.627,95.158,47.462,95.192,47.5L95.192,47.5z"/>
	</g>
	<g>
		<g>
			<g>
				<path d="M95.192,47.5C95.31,47.627,95.158,47.462,95.192,47.5L95.192,47.5z"/>
			</g>
			<g>
				<path d="M95.192,47.5c-0.044-0.048-0.091-0.091-0.143-0.129l-4.347-3.255V32.504c0-0.191-0.076-0.374-0.212-0.508
					c-0.135-0.135-0.317-0.21-0.507-0.21c-0.001,0-0.001,0-0.002,0l-15.72,0.016l-13.91-10.418
					c-0.428-0.309-0.871-0.195-1.177,0.035L45.342,31.833l-16.394,0.018c-0.396,0-0.718,0.322-0.718,0.718v12.144l-3.961,2.982
					c-0.187,0.139-0.301,0.387-0.285,0.618l-0.085,45.232c0.041,0.439,0.28,0.678,0.718,0.719h70.047
					c0.396,0,0.719-0.321,0.719-0.718l0.002-45.568C95.385,47.792,95.31,47.627,95.192,47.5z M59.791,22.757l12.08,9.048
					l-6.407,0.007l-5.07-3.786c-0.433-0.309-0.908-0.254-1.263,0.023l-5.136,3.775l-6.259,0.007L59.791,22.757z M63.064,31.814
					l-6.642,0.007l3.352-2.464L63.064,31.814z M29.667,33.287l59.598-0.063v28.652H29.667V33.287z M25.421,48.626l2.81-2.115v12.21
					l-2.774-7.587c-0.01-0.029-0.025-0.055-0.039-0.082L25.421,48.626z M25.411,55.193l2.801,7.662
					c0.131,0.359,0.5,0.467,0.883,0.457h18.781L25.365,84.975L25.411,55.193L25.411,55.193z M93.945,92.828H25.337l0.025-5.857
					l24.359-23.44c0.067-0.064,0.117-0.14,0.153-0.218h20.721l23.351,24.389L93.945,92.828z M93.946,85.623L72.585,63.312H89.98
					c0.44-0.002,0.559-0.143,0.688-0.458l3.28-7.957L93.946,85.623z M93.949,51.134c-0.004,0.007-0.008,0.013-0.012,0.021
					l-3.234,7.846v-7.909v-0.145v-5.035l3.246,2.432V51.134z"/>
			</g>
		</g>
		<g>
			<path d="M95.192,47.5C95.31,47.627,95.158,47.462,95.192,47.5L95.192,47.5z"/>
		</g>
	</g>
</g>
<path d="M59.642,59.539c-6.438,0-11.675-5.237-11.675-11.674S53.205,36.19,59.642,36.19c6.437,0,11.674,5.237,11.674,11.674
	S66.079,59.539,59.642,59.539z M59.642,37.628c-5.646,0-10.238,4.592-10.238,10.237c0,5.645,4.593,10.238,10.238,10.238
	c5.645,0,10.237-4.592,10.237-10.238C69.879,42.22,65.287,37.628,59.642,37.628z"/>
<path d="M59.723,54.019v-1.437c1.131,0,1.575-0.207,1.748-0.382c0.232-0.231,0.242-0.682,0.238-1.398v-0.206v-0.242
	c0.006-0.699-0.004-1.14-0.229-1.366c-0.172-0.172-0.615-0.378-1.758-0.378v-1.437c1.35,0,2.232,0.255,2.777,0.803
	c0.656,0.661,0.651,1.538,0.646,2.387l-0.001,0.233l0.001,0.2c0.003,0.861,0.007,1.751-0.658,2.419
	C61.943,53.763,61.064,54.019,59.723,54.019z"/>
<path d="M59.719,48.614c-1.497,0-2.436-0.346-2.956-1.087c-0.468-0.668-0.468-1.499-0.468-2.301c0-1.479,0-3.457,3.423-3.457v1.437
	c-1.986,0-1.986,0.541-1.986,1.985c0,0.667,0,1.214,0.208,1.512c0.221,0.314,0.819,0.474,1.778,0.474V48.614z"/>
<rect x="59.006" y="40.733" width="1.437" height="14.459"/>
<path d="M63.119,45.189h-1.437c0-1.985-0.54-1.985-1.985-1.985v-1.437C61.141,41.767,63.119,41.767,63.119,45.189z"/>
<path fill="none" stroke="#000000" stroke-width="4" stroke-miterlimit="10" d="M57,45.205"/>
<path d="M59.786,54.017c-1.444,0-3.422,0-3.422-3.422h1.437c0,1.985,0.541,1.985,1.985,1.985V54.017z"/>
<g>
	<path d="M52.85,9.478C52.569,9.197,53.131,9.758,52.85,9.478L52.85,9.478z"/>
</g>
<g>
	<path d="M52.85,9.478c0.281,0.28,0.736,0.28,1.016,0l4.887-4.887v12.633c0,0.929,1.438,0.929,1.438,0V4.6l5.062,5.062
		c0.656,0.657,1.673-0.359,1.016-1.016l-6.242-6.243c-0.28-0.342-0.768-0.35-1.07-0.048l-6.106,6.106
		C52.569,8.742,52.569,9.197,52.85,9.478C53.131,9.758,52.569,9.197,52.85,9.478C53.131,9.758,52.569,9.197,52.85,9.478
		C53.131,9.758,52.569,9.197,52.85,9.478z"/>
</g>
</svg>
