<?xml version="1.0" encoding="utf-8"?>
<!-- Generator: Adobe Illustrator 16.0.0, SVG Export Plug-In . SVG Version: 6.00 Build 0)  -->
<!DOCTYPE svg PUBLIC "-//W3C//DTD SVG 1.1//EN" "http://www.w3.org/Graphics/SVG/1.1/DTD/svg11.dtd">
<svg version="1.1" id="Layer_1" xmlns="http://www.w3.org/2000/svg" xmlns:xlink="http://www.w3.org/1999/xlink" x="0px" y="0px"
	 width="120px" height="120px" viewBox="0 0 120 120" enable-background="new 0 0 120 120" xml:space="preserve">
<circle fill="none" stroke="#000000" stroke-width="2" stroke-linecap="round" stroke-linejoin="round" stroke-miterlimit="10" cx="39.6" cy="53.998" r="3.6"/>
<circle fill="none" stroke="#000000" stroke-width="2" stroke-linecap="round" stroke-linejoin="round" stroke-miterlimit="10" cx="80.398" cy="53.998" r="3.599"/>
<path fill="none" stroke="#000000" stroke-width="2" stroke-linecap="round" stroke-linejoin="round" stroke-miterlimit="10" d="
	M45.601,68.398V73.2c0,2.65-2.149,4.8-4.802,4.8C38.146,78,36,75.851,36,73.2v-4.802H45.601z"/>
<path fill="none" stroke="#000000" stroke-width="2" stroke-linecap="round" stroke-linejoin="round" stroke-miterlimit="10" d="
	M83.998,68.398V73.2c0,2.65-2.15,4.8-4.802,4.8c-2.649,0-4.798-2.149-4.798-4.8v-4.802H83.998z"/>
<path fill="none" stroke="#000000" stroke-width="2" stroke-linecap="round" stroke-linejoin="round" stroke-miterlimit="10" d="
	M52.799,53.998h14.4H52.799z"/>
<path fill="none" stroke="#000000" stroke-width="2" stroke-linecap="round" stroke-linejoin="round" stroke-miterlimit="10" d="
	M52.799,49.199h14.4H52.799z"/>
<path fill="none" stroke="#000000" stroke-width="2" stroke-linecap="round" stroke-linejoin="round" stroke-miterlimit="10" d="
	M52.799,58.798h14.4H52.799z"/>
<polygon fill="none" stroke="#000000" stroke-width="2" stroke-linecap="round" stroke-linejoin="round" stroke-miterlimit="10" points="
	75.598,25.2 44.398,25.2 41.2,39.6 78.797,39.6 "/>
<path fill="none" stroke="#000000" stroke-width="2" stroke-linecap="round" stroke-linejoin="round" stroke-miterlimit="10" d="
	M26.4,63.6c0,2.652,2.149,4.799,4.802,4.799h57.6h-0.004c2.651,0,4.802-2.148,4.802-4.799l0,0V44.402V44.4
	c0-2.652-2.15-4.8-4.802-4.8h0.004h-2.405L81.598,18h-43.2L33.6,39.6h-2.398c-2.656,0-4.802,2.149-4.802,4.8v0.002V63.6L26.4,63.6z"
	/>
</svg>
