<?xml version="1.0" encoding="utf-8"?>
<!-- Generator: Adobe Illustrator 16.0.0, SVG Export Plug-In . SVG Version: 6.00 Build 0)  -->
<!DOCTYPE svg PUBLIC "-//W3C//DTD SVG 1.1//EN" "http://www.w3.org/Graphics/SVG/1.1/DTD/svg11.dtd">
<svg version="1.1" id="Layer_1" xmlns="http://www.w3.org/2000/svg" xmlns:xlink="http://www.w3.org/1999/xlink" x="0px" y="0px"
	 width="120px" height="120px" viewBox="0 0 120 120" enable-background="new 0 0 120 120" xml:space="preserve">
<g>
	<g>
		<path d="M87.264,55.296c0.192,0.096,0.48,0.192,0.672,0.192c0.672,0,1.344-0.384,1.633-1.056c0.384-0.864,0-1.92-0.864-2.304
			l-5.185-2.304c0.385-1.728,0.672-3.552,0.672-5.376c0-5.76-2.111-11.136-5.471-15.264l4.319-3.168
			c0.769-0.576,0.96-1.728,0.384-2.496s-1.729-0.96-2.496-0.384l-4.703,3.456c-3.744-3.36-8.545-5.568-13.824-5.952v-4.416
			c0-0.96-0.769-1.728-1.729-1.728l0,0c-0.96,0-1.728,0.768-1.728,1.824v4.32c-5.568,0.384-10.656,2.688-14.592,6.24l-4.992-3.744
			c-0.768-0.576-1.92-0.384-2.496,0.384c-0.576,0.768-0.384,1.92,0.384,2.496l4.704,3.456c-3.264,4.128-5.28,9.312-5.28,14.976
			c0,1.728,0.192,3.552,0.576,5.28l-5.376,2.4c-0.864,0.384-1.248,1.44-0.864,2.304c0.288,0.672,0.96,1.056,1.632,1.056
			c0.192,0,0.48-0.096,0.672-0.192l4.992-2.208c0.192,0.48,0.384,0.96,0.576,1.44c0.768,1.632,1.728,3.072,2.592,4.512
			c0.768,1.248,1.536,2.399,2.208,3.647c1.056,2.209,2.496,5.473,3.072,8.16v9.024v9.216c0,0.96,0.768,1.729,1.728,1.729h23.904
			c0.96,0,1.728-0.769,1.728-1.729v-9.216v-9.12c0.576-2.304,1.729-5.664,2.977-7.872c0.48-0.769,0.96-1.536,1.344-2.208
			c1.248-1.92,2.496-3.936,3.457-6.048c0.191-0.384,0.383-0.864,0.575-1.248L87.264,55.296z M55.392,59.04
			c-1.536-2.784-2.88-5.376-3.264-7.968h16.32c-0.48,2.688-1.824,5.28-3.265,7.968c-1.632,2.88-2.496,6.239-2.783,9.792h-4.128
			C57.984,65.279,57.024,61.92,55.392,59.04z M70.561,72.384v5.664H50.208v-5.664H70.561z M70.561,87.264H50.208V81.6h20.353V87.264
			z M75.456,58.656c-0.479,0.768-0.96,1.536-1.44,2.304c-1.344,2.208-2.496,5.28-3.168,7.872h-4.992
			c0.192-2.88,1.057-5.664,2.305-8.064c2.016-3.647,3.84-7.295,3.936-11.424c0-0.48-0.191-0.96-0.479-1.248
			c-0.288-0.384-0.769-0.576-1.248-0.576h-20.16c-0.48,0-0.96,0.192-1.248,0.576c-0.288,0.384-0.48,0.768-0.48,1.248
			c0.096,4.128,1.92,7.776,3.936,11.424c1.344,2.4,2.112,5.088,2.304,8.064h-4.896c-0.864-2.784-2.112-5.855-3.072-7.775
			c-0.672-1.44-1.536-2.688-2.304-3.937c-0.864-1.44-1.728-2.688-2.4-4.128c-1.248-2.688-1.92-5.664-1.92-8.544
			c0-11.232,9.12-20.352,20.256-20.352c11.232,0,20.257,9.12,20.257,20.352c0,2.976-0.673,5.952-1.92,8.544
			C77.855,54.912,76.704,56.736,75.456,58.656z"/>
		<path d="M28.992,34.752l-5.28-1.152c-0.96-0.192-1.92,0.384-2.112,1.344s0.384,1.92,1.344,2.112l5.28,1.152
			c0.096,0,0.288,0,0.384,0c0.768,0,1.536-0.576,1.728-1.344C30.624,35.904,29.952,34.944,28.992,34.752z"/>
		<path d="M45.312,14.688c0.288,0.672,0.96,1.056,1.632,1.056c0.288,0,0.48-0.096,0.768-0.192c0.864-0.384,1.248-1.44,0.864-2.304
			l-2.304-4.896c-0.384-0.864-1.44-1.248-2.304-0.864c-0.864,0.384-1.248,1.44-0.864,2.304L45.312,14.688z"/>
		<path d="M72.191,14.976c0.192,0.096,0.48,0.096,0.672,0.096c0.673,0,1.345-0.384,1.633-1.152l2.016-4.992
			c0.385-0.864-0.096-1.92-0.96-2.304s-1.92,0.096-2.304,0.96l-2.016,4.992C70.848,13.632,71.232,14.592,72.191,14.976z"/>
		<path d="M98.305,33.408c-0.289-0.96-1.248-1.44-2.209-1.152l-5.184,1.536C89.952,34.08,89.473,35.04,89.76,36
			c0.192,0.768,0.961,1.248,1.729,1.248c0.191,0,0.287,0,0.479-0.096l5.185-1.536C98.016,35.328,98.592,34.368,98.305,33.408z"/>
		<path d="M85.248,64.607c-0.768-0.672-1.824-0.575-2.496,0.192c-0.672,0.769-0.576,1.824,0.191,2.496l4.033,3.552
			c0.383,0.288,0.768,0.48,1.151,0.48c0.479,0,0.96-0.192,1.345-0.576c0.672-0.768,0.575-1.824-0.193-2.496L85.248,64.607z"/>
		<path d="M35.04,64.704l-3.936,3.744c-0.672,0.672-0.768,1.823-0.096,2.495c0.384,0.385,0.768,0.576,1.248,0.576
			s0.864-0.191,1.248-0.479l3.936-3.744c0.672-0.672,0.768-1.823,0.096-2.496C36.864,64.128,35.808,64.032,35.04,64.704z"/>
	</g>
</g>
</svg>
